<?xml version="1.0" ?>
<!DOCTYPE svg  PUBLIC '-//W3C//DTD SVG 1.1//EN'  'http://www.w3.org/Graphics/SVG/1.1/DTD/svg11.dtd'>
<!-- Uploaded to: SVG Repo, www.svgrepo.com, Generator: SVG Repo Mixer Tools -->
<svg width="800px" height="800px" viewBox="0 0 32 32" enable-background="new 0 0 32 32" version="1.1" xml:space="preserve" xmlns="http://www.w3.org/2000/svg" xmlns:xlink="http://www.w3.org/1999/xlink">
<g id="Files_Folder40"/>
<g id="Files_Folder39"/>
<g id="Files_Folder38"/>
<g id="Files_Folder37"/>
<g id="Files_Folder36"/>
<g id="Files_Folder35"/>
<g id="Files_Folder34">
<g>
<path d="M27,9v5c0,0.55-0.45,1-1,1H6.74L2.96,27.29C2.83,27.72,2.43,28,2,28c-0.05,0-0.1,0-0.15-0.01    C1.36,27.92,1,27.5,1,27V5c0-0.55,0.45-1,1-1h7c0.31,0,0.61,0.15,0.8,0.4L12.5,8H26C26.55,8,27,8.45,27,9z" fill="#FE9803"/>
</g>
<line fill="none" stroke="#231F20" stroke-linecap="round" stroke-linejoin="round" stroke-miterlimit="10" stroke-width="2" x1="26" x2="2" y1="27" y2="27"/>
<g>
<path d="M30.96,14.29l-4,13C26.83,27.71,26.44,28,26,28H2c-0.32,0-0.62-0.15-0.8-0.41    c-0.19-0.25-0.25-0.58-0.16-0.88l4-13C5.17,13.29,5.56,13,6,13h24c0.32,0,0.62,0.15,0.8,0.41C30.99,13.66,31.05,13.99,30.96,14.29    z" fill="#FFC10A"/>
</g>
</g>
<g id="Files_Folder33"/>
<g id="Files_Folder32"/>
<g id="Files_Folder31"/>
<g id="Files_Folder30"/>
<g id="Files_Folder29"/>
<g id="Files_Folder28"/>
<g id="Files_Folder27"/>
<g id="Files_Folder26"/>
<g id="Files_Folder25"/>
<g id="Files_Folder24"/>
<g id="Files_Folder23"/>
<g id="Files_Folder22"/>
<g id="Files_Folder21"/>
<g id="Files_Folder20"/>
<g id="Files_Folder19"/>
<g id="Files_Folder18"/>
<g id="Files_Folder17"/>
<g id="Files_Folder16"/>
<g id="Files_Folder15"/>
<g id="Files_Folder14"/>
<g id="Files_Folder13"/>
<g id="Files_Folder12"/>
<g id="Files_Folder11"/>
<g id="Files_Folder10"/>
<g id="Files_Folder09"/>
<g id="Files_Folder08"/>
<g id="Files_Folder07"/>
<g id="Files_Folder06"/>
<g id="Files_Folder05"/>
<g id="Files_Folder04"/>
<g id="Files_Folder03"/>
<g id="Files_Folder02"/>
<g id="Files_Folder01"/>
</svg>